<?xml version="1.0" encoding="utf-8"?>
<!-- Generator: Adobe Illustrator 26.4.1, SVG Export Plug-In . SVG Version: 6.00 Build 0)  -->
<svg version="1.1" baseProfile="tiny" id="svg8" xmlns="http://www.w3.org/2000/svg" xmlns:xlink="http://www.w3.org/1999/xlink"
	 x="0px" y="0px" viewBox="0 0 1000 1000" overflow="visible" xml:space="preserve">
<g>
	<path fill="#C2100C" d="M22.74,502.33C22.36,239.69,235.38,25.92,497.53,25.86c263.54-0.06,476.17,212.3,476.79,475.58
		c0.62,261.01-211.22,476.26-474.83,476.19C235.41,977.56,23.12,766.15,22.74,502.33z M234.16,337.54c-1.97,0.88-3.94,1.77-5.9,2.65
		c-36.85-9.48-68.43-32.33-105.38-41.56c-6.31-1.58-4.65-6.37-3.43-9.94c1.34-3.91,4.64-5.72,9.1-3.43
		c9.8,5.04,19.82,9.65,29.48,14.94c17.56,9.62,36.14,16.96,54.58,24.58c3.22,1.33,8.56,4.26,11.24,0.58
		c2.21-3.04-1.59-7.05-3.56-10.18c-21.28-33.82-50.91-59.51-81.94-83.83c-4.96-3.89-7.79-2.78-11.4,2.34
		c-68.6,97.52-97.36,205.75-82.85,323.91c14.32,116.56,65.98,215.09,155.99,291.03c125.92,106.24,270.05,135.28,428.3,92.24
		c67.4-18.33,127.31-52.51,178.22-100.41c113.61-106.9,163.51-238.98,146.18-393.86c-13.16-117.53-66.65-216.06-157-292.68
		C684.48,59.54,555.13,26.67,412.26,52.03c-91.45,16.24-170.6,59.15-236.62,125.06c-12.85,12.82-25.93,25.6-36.04,41.3
		c6.08,1.96,12.75,2.09,14.08,8.55c1.25,6.08,5.16,9.58,9.24,13.24c7.47,6.7,15.17,13.14,22.52,19.96
		c17.28,16.02,33.43,33.01,44.74,54C234.16,321.51,238.38,328.8,234.16,337.54z"/>
	<path fill="#DCB686" d="M234.16,337.54c4.23-8.74,0-16.03-3.97-23.39c-11.31-20.98-27.47-37.97-44.74-54
		c-7.35-6.82-15.05-13.26-22.52-19.96c-4.08-3.66-7.99-7.16-9.24-13.24c-1.33-6.46-8-6.59-14.08-8.55
		c10.11-15.71,23.19-28.48,36.04-41.3c66.03-65.91,145.18-108.82,236.62-125.06c142.87-25.36,272.22,7.51,383.52,101.89
		c90.35,76.62,143.85,175.15,157,292.68c17.34,154.88-32.56,286.96-146.18,393.86c-50.91,47.9-110.82,82.08-178.22,100.41
		c-158.25,43.04-302.38,14-428.3-92.24C110.08,772.69,58.42,674.17,44.1,557.61C29.59,439.45,58.35,331.22,126.95,233.7
		c3.6-5.12,6.43-6.23,11.4-2.34c31.03,24.33,60.66,50.01,81.94,83.83c1.97,3.13,5.77,7.14,3.56,10.18
		c-2.67,3.68-8.02,0.75-11.24-0.58c-18.44-7.61-37.02-14.96-54.58-24.58c-9.66-5.29-19.68-9.9-29.48-14.94
		c-4.45-2.29-7.76-0.48-9.1,3.43c-1.22,3.57-2.88,8.36,3.43,9.94c36.94,9.24,68.53,32.08,105.38,41.56
		c2.69,4.68,5.05,8.09,1.29,14.69c-44.84,78.86-56.26,162.97-28.09,248.94c41.56,126.85,130.4,203.57,263.02,220.95
		c118.1,15.48,216.62-27.26,289.83-121.59c59.78-77.02,78.32-165.23,57.32-260.39c-18.94-85.81-67.08-152.32-141.3-199.22
		c-56.24-35.54-118.09-50.69-184.66-47.18c-38.1,2.01-74.5,10.79-109.26,25.94c-53.19,23.2-96.46,58.97-130.25,106.13
		C243,332.87,239.62,336.45,234.16,337.54z M366.77,172.88c0.5,0.51,1,1.02,1.5,1.53c1.78,3.96-3.53,10.96,3.87,12.08
		c6.27,0.95,6.22-6.17,8.68-9.95c2.21-3.38,1.9-9.16,6.39-10.12c8.93-1.9,16.52-6.91,25.08-9.56c4.4-1.36,7.66-1.42,10.85,2.56
		c4.76,5.93,10.82,6.68,17.48,2.98c2.82-1.57,7.85-1.62,6.65-6.25c-0.95-3.67-5-2.44-8.11-2.23c-5.76,0.39-6.95-0.52-5.14-3.18
		c4.16-6.09,2.24-7.13-3.94-6.06c-4.84,0.84-6.63-2.69-8.44-6.14c-6.25-11.9-12.83-23.64-18.63-35.75c-2.3-4.81-5.69-5.69-9.96-5.23
		c-5,0.54-3.78,5.1-4.32,8.16c-1.73,9.84-2.29,19.96-4.9,29.54c-2.27,8.31-2.39,17.94-10.94,23.7
		c-13.76,9.25-27.23,18.92-40.99,28.18c-3.17,2.13-6.78,6.46-10.84,2.97c-3.5-3.01-0.16-7,0.89-10.51
		c3.25-10.8,9.49-20.75,8.5-32.76c-1.12-13.66-6.98-17.88-19.07-11.43c-20.05,10.69-38.13,24.1-51.16,43.26
		c-1.91,2.81-4.8,6.18-0.76,8.95c3.04,2.09,6.51,1.36,8.85-2.35c3.61-5.72,5.42-2.46,7.44,1.51c3.89,7.66,7.59,15.5,12.34,22.63
		c3.52,5.29,7.26,11.1,14.57,12.3c2.75,0.45,6.59,1.43,7.54-1.2c1.04-2.87,0.34-6.55-3.59-8.63c-14.01-7.43-18.28-21.72-24.04-34.93
		c-1.81-4.15-0.46-7.53,2.62-10.1c7.67-6.39,15.01-13.26,23.97-17.93c3.06-1.6,6.74-4.14,9.6-1.87c2.82,2.24,1.64,6.58,0.52,9.8
		c-3.4,9.75-7.02,19.42-10.75,29.04c-2.1,5.4-1.59,10.48,2.4,14.41c4.15,4.09,9.63,3.4,14.65,1.59c3.2-1.15,6.36-2.78,9.1-4.8
		C345.47,189.15,356.09,180.97,366.77,172.88z M319.46,876.14c-5.24,7.51-12.72,14.23-3.41,22.22c6.71,5.76,14.51,7.91,23.15,5.1
		c4.59-1.49,10.3-2.89,1.55-7.64c-4.43-2.41-0.97-5.35,0.82-7.61c8.17-10.29,16.56-20.4,24.64-30.76c2.41-3.1,7.41-6.11,5.06-10.44
		c-2.62-4.85-8.33-5.78-13.67-5.06c-3.19,0.43-5.66,1-8.18-2.15c-18.15-22.69-46.65-7.89-53.72,14.81
		c-3.53,11.35,3.41,20.69,15.48,21.51C313.47,876.27,315.77,876.14,319.46,876.14z M669.96,99.19c-2.65-0.26-13.42,12.5-15.53,16.63
		c-6.11,11.98-7.77,27.78-26.17,29.52c-4.46,0.42-6.53,6.52-1.18,9.01c6.16,2.88,4.03,6.02,2.34,9.8
		c-3.93,8.84-6.91,17.95-8.58,27.52c-0.79,4.53-2.2,10.74,2.66,11.56c4.9,0.82,8.3-4.36,9.51-10.07c1.63-7.72,4.2-15.35,5.8-22.96
		c2.27-10.8,7.36-12,16.76-10.06c22.21,4.6,45.11,5.89,66.57,14.04c4.92,1.87,8.67,0.19,9.84-4.44c1.51-5.92-4.34-3.9-6.95-4.9
		c-19.11-7.33-39.44-9.55-59.3-13.73c-16.01-3.37-15.58-2.87-8.12-17.37c5.22-10.15,11.99-16.42,23.86-15.17
		c8.58,0.9,17.3,1.44,25.62,3.52c9.05,2.26,19.27,3.01,24.8,12.65c1.4,2.45,3.99,2.43,6.49,1.77c3.28-0.86,4.47-3.9,4.28-6.38
		c-0.41-5.15-3.77-8.76-8.42-10.95c-7.84-3.7-16.12-5.75-24.58-7.71c-12.8-2.97-27.8,0.81-37.82-11.44
		C671.43,99.57,670.59,99.46,669.96,99.19z M211.63,790.38c-3.16,1.53-6.2,3.04-9.29,4.48c-2.86,1.33-7.8-2.23-8.78,2.76
		c-0.73,3.74,3.57,5.55,5.83,8.02c1.62,1.77,3.81,3,5.49,4.73c6.06,6.21,11.73,14.43,19.21,1.18c1.18-2.08,4.59-2.91,6.97-4.31
		c7.74-4.55,15.62-8.87,23.2-13.69c10.55-6.7,11.98-15.45,4.56-25.37c-9.03-12.08-18.93-14.97-33.63-9.77
		c-14.28,5.06-28.51,10.29-42.86,15.15c-3.9,1.32-9.88-5.03-11.85,0.58c-1.85,5.26,5.36,7.9,8.51,11.75c1.08,1.32,2.5,2.4,3.88,3.42
		c2.18,1.62,3.87,1.95,5.99-0.76C198.34,776.43,201.65,776.7,211.63,790.38z M398.36,851.15c-3.15,0.4-10.21,0.01-9.63,3.85
		c1.81,11.87-7.17,18.77-10.55,28.1c-3.09,8.51-1.04,14.95,7.19,18.73c4.76,2.19,9.89,3.45,15,1.12c4.78-2.18,8.1-3.58,12.16,2.53
		c4.34,6.53,16.5,6.52,22.56,1.7c1.84-1.46,4.91-4.09,2.61-5.63c-6.05-4.05-1.11-7.13,0.28-10.2c2.7-5.95,6.22-11.51,9-17.43
		c4.23-9,1.98-13.25-7.78-15.69c-4.09-1.02-8.21-1.34-12.28-0.31c-3.34,0.85-5.97,1.6-5.44,6.8c0.96,9.54-6.42,16.24-10.47,24.03
		c-1.21,2.34-4.03,2.88-6.29,1.1c-2.33-1.83-0.14-3.8,0.62-5.44c2.02-4.37,4.36-8.6,6.57-12.89
		C419.16,857.4,415.21,851.08,398.36,851.15z M468.01,131.22c7.07,12.41,12.75,22.04,21.61,28.87c5.21,4.02,10.8,10.1,18.29,6.49
		c7.6-3.67,11.86-10.34,11.41-19.36c-0.34-6.87-0.48-13.68-1.45-20.58c-1.24-8.81-6.23-18.07,0.41-26.99
		c1.4-1.89,0.25-3.75-1.72-5.21c-3.26-2.4-7.2-4.18-10.61-2.57c-3.21,1.52-1.44,5.73-0.97,8.6c2.41,14.58,5.73,29.06,4.37,43.98
		c-0.36,3.93,0.7,9.38-4.23,10.68c-4.86,1.28-7.78-3.21-10.95-6.46c-12.3-12.61-18.65-27.91-21.21-45.08
		c-0.66-4.42-2.57-8.13-7.73-7.96c-3.87,0.12-5.35,3.42-5.21,6.57c0.82,18.26-5.5,35.4-8.01,53.12c-0.85,5.98-0.09,11.72,2.42,17.14
		c2.29,4.95,6.03,3.12,9.71,1.8c3.25-1.17,4.87-3.15,2.79-6.18C458.81,156.28,465.68,145.22,468.01,131.22z M822.82,776.09
		c-0.02-9.82-6.53-15.15-16.32-13.11c-3.69,0.77-7.29,2.04-10.9,3.18c-4.22,1.33-8.41,3.67-12.78,0.7c-1.62-1.1-1.73-2.81-0.8-4.56
		c3.34-6.27,7.13-0.03,10.71-0.28c5.84-0.39,9.78-3.19,12.37-8.03c1.55-2.89,1.54-6.1-1.01-8.62c-4.33-4.28-9.15-2.53-13.41-0.23
		c-10.21,5.52-18.8,12.92-23.29,23.97c-2.47,6.09-2.18,12.24,2.6,17.39c4.61,4.98,10.16,4.9,16.2,2.93
		c4.23-1.38,8.62-2.33,13.01-3.15c2.13-0.4,4.16,0.46,4.9,2.82c0.67,2.14-0.01,4.04-1.44,5.72c-1.61,1.88-3.23,2.08-5.35,0.62
		c-1.66-1.14-3.62-2.42-5.52-2.56c-7.08-0.49-12.71,2.55-13.55,9.77c-0.73,6.2,3.75,9.17,9.94,9.06
		C801.47,811.47,822.85,789.49,822.82,776.09z M597.35,905.21c10.54-0.26,19.66-3.37,25.11-13.21c1.27-2.3,3.01-5.24,0.67-7.64
		c-2.21-2.27-4.46,0.17-6.44,1.21c-4.4,2.32-8.95,3.56-13.92,2.68c-2.22-0.39-3.89-1.72-4.25-3.91c-0.48-2.96,2.26-3.2,4.04-3.55
		c5.78-1.15,11.47-2.53,16.51-5.65c5.32-3.3,9.01-8.13,7.87-14.54c-1.2-6.79-6.25-10.94-13.03-11.39
		c-12.91-0.86-24.97,2.08-33.41,12.62c-7.73,9.67-8.46,20.9-3.49,32.12C580.82,902.54,588.3,905.49,597.35,905.21z M710.53,824.18
		c0.21,5.44,2.19,11.65,5.69,17.33c5.68,9.19,14.39,12.28,25.09,9.11c11.66-3.46,21.44-14.84,20.97-24.36
		c-0.11-2.11-0.14-4.43-2.15-5.52c-2.54-1.38-3.53,1.28-4.82,2.62c-3.38,3.51-6.71,7.07-11.59,8.41c-2.88,0.79-5.86,0.36-7.35-2.37
		c-1.94-3.56,2.05-3.75,3.7-4.81c5.31-3.38,10.1-7.31,13.9-12.3c3.45-4.54,3.78-9.81,1.24-14.7c-2.6-5.01-7.39-7.12-13.02-6.88
		C727.33,791.32,710.79,808.21,710.53,824.18z M773.8,280.03c-2.23-0.54-5.5-0.75-8.16-2.12c-3.72-1.92-9.88-2.38-9.21-8.27
		c0.94-8.33,8.07-12.43,14.05-16.94c4.5-3.4,6.61,1.43,9.46,3.47c6.15,4.41,12.44,8.65,18.42,13.29c2.77,2.15,6.05,3.75,8.25,1.14
		c3.1-3.67-0.97-5.89-3.37-8.17c-5-4.76-9.73-9.84-15.03-14.25c-4.94-4.12-1.73-6.35,1.35-8.76c3.42-2.67,6.52-0.82,9.49,1.07
		c10.48,6.69,20.75,13.6,28.26,23.86c1.53,2.1,4,4.82,6.83,2.39c2.47-2.12-0.11-4.31-1.44-6.21c-6.52-9.41-14.08-17.98-22.79-25.35
		c-10.58-8.95-19.8-9.02-30.19-1.11c-1.36,1.03-2.82,2.03-4.39,2.67c-9.44,3.85-16.73,10.73-23.91,17.54
		c-6.07,5.75-9.06,12.92-5.56,21.48c4.11,10.04,20.6,15.77,35.28,12.08c3.51-0.88,8.82-1.16,7.85-6.25
		c-0.99-5.17-5.44-3.75-9.22-2.37C778.19,279.8,776.38,279.71,773.8,280.03z M721.16,243.71c7.02-0.03,12.64-2.73,18.26-5.37
		c2.73-1.28,4.96-3.18,3.39-6.39c-1.55-3.19-4.66-2.34-7.31-1.54c-1.97,0.6-3.74,1.85-5.71,2.39c-7.33,2-15.2,1.92-19.98-4.03
		c-4.99-6.22,1.82-11.27,4.86-16.39c0.69-1.17,1.82-2.08,2.6-3.21c2.97-4.34,6.05-4.56,10.27-1.25c6.87,5.38,15.37,7.66,23.2,11.22
		c2.76,1.26,5.79,1.66,7.37-1.11c1.85-3.24-1.26-4.93-3.51-6.42c-6.32-4.18-12.55-8.54-19.15-12.23c-4.97-2.77-2.89-5.06-0.56-8.02
		c3.05-3.89,6.37-2.84,10.16-1.31c11.87,4.79,23.29,10.26,33.03,18.83c1.59,1.4,4.11,3.69,6.32,1.1c2.21-2.59-0.36-4.3-2.09-5.93
		c-8.3-7.85-17.01-15.3-27.04-20.74c-7.73-4.19-17.58-8.12-24.86-2.65c-9.96,7.48-18.02,17.65-26.23,27.23
		c-5.87,6.84-10.9,14.39-6.16,24.4C702.95,242.66,712.56,242.55,721.16,243.71z M266.9,247.58c-0.87-3.52-1.96-7.86-3.01-12.22
		c-0.7-2.91-2.06-5.73-5.37-5.15c-4.32,0.76-3.88,4.75-2.9,7.51c2.35,6.62,1.89,12.87-0.83,19.15c-1.39,3.22-2.73,6.84-7.01,6.56
		c-8.55-0.57-12.81-7.46-17.85-13c-2.93-3.22-0.31-5.7,1.85-7.99c6.22-6.64,10.02-14.88,14.84-22.45c1.38-2.16,1.61-4.89-0.55-6.61
		c-2.51-2.01-4.63,0.09-6.19,1.85c-5.05,5.68-9.93,11.5-14.82,17.33c-1.78,2.13-3.31,4.98-6.58,2.31c-2.38-1.95-5.15-4.03-3.99-7.72
		c0.72-2.28,2-4.39,3.15-6.51c5.82-10.7,12.92-20.37,22.09-28.52c1.56-1.39,3.75-3.54,1.54-6.2c-1.56-1.88-3.21-0.79-4.51,0.31
		c-10.76,9.21-22.25,17.99-28.79,30.82c-2.7,5.31-8.01,12.87-3.56,17.99c9.46,10.89,16.43,23.74,27.19,33.52
		c10.74,9.76,24.23,9.4,30.18-1.28C264.98,261.53,266.42,255.09,266.9,247.58z M525.38,915.1c1.72-0.16,3.45-0.25,5.16-0.48
		c8.7-1.15,21.1,1.82,16.28-14.55c-0.24-0.82,0.65-1.93,0.88-2.94c3.45-15.15,6.97-30.28,10.27-45.46
		c2.05-9.48-1.69-13.61-11.49-13.25c-4.58,0.17-8.83,1.58-12.95,3.41c-2.21,0.98-4.42,2.03-3.71,5.29
		c4.52,20.93-4.64,40.02-10.25,58.93C516.6,915.97,516.72,916.07,525.38,915.1z M235.24,832.63c5.75,7.77,12.26,10.39,17.95,13.97
		c5.45,3.43,11.55,10.36,14.92-2.7c0.94-3.63,6.23-6.19,9.63-9.12c9.94-8.56,19.95-17.04,29.9-25.6c3.23-2.78,6.41-6.05,4.33-10.63
		c-3.51-7.73-11.18-9.87-18.46-11.9c-7.48-2.09-5.44,4.75-7.14,8.18c-0.71,1.43-2.4,2.4-3.69,3.52
		c-10.69,9.29-21.45,18.49-32.06,27.87C246.7,829.67,242.83,832.96,235.24,832.63z M557.32,162.04
		c23.78,2.23,41.75-11.71,49.68-36.48c2.32-7.24,2.18-13.79-3.02-19.27c-5.49-5.78-12.67-6.44-20.09-4.28
		c-14.83,4.32-27.64,12.1-38.81,22.71c-7.86,7.46-10.03,16.3-6.29,26.33C542.25,160.34,550.13,162.3,557.32,162.04z M673.59,852.25
		c-1.34-9.53,0.06-11.87,7.73-7.38c8,4.68,15.32-0.66,14.9-9.85c-0.23-5-2.59-8.81-7.05-10.56c-5.66-2.22-10.74-0.49-15.14,3.76
		c-2.04,1.97-1.65,6.76-7.36,4.67c-8.25-3.01-14.44,2.47-20.16,7.6c-2.03,1.82-3.18,3.37-1.01,6.87
		c7.63,12.29,6.15,26.24,4.42,39.59c-0.75,5.75,0.31,6.42,4.64,4.86c7.78-2.82,15.37-6.13,23-9.34c2.14-0.9,5.79-3.11,3.19-4.88
		C670.06,870.34,677.67,858.68,673.59,852.25z M476.28,915.08c7.69-0.54,18.64,4.06,14.3-11.07c-0.62-2.17,1.57-5.15,2.46-7.76
		c2.57-7.48,5.34-14.91,7.66-22.47c1.86-6.09-0.63-10.06-6.91-11.42c-7.75-1.68-14.98-0.71-21.25,4.52
		c-0.32,0.27-0.21,1.32-0.01,1.9c4.71,13.6-3.11,25.46-8.93,35.23c-6.98,11.69-1.56,10.25,6.08,10.56
		C472.09,914.67,474.49,914.94,476.28,915.08z M851.19,287.69c-0.16-3.65-8.37-8.57-11.48-4.99c-8.71,10-21.56,11.72-32.02,18.01
		c-6.8,4.08-12.84,10.52-9.15,18.65c5.85,12.85,18.59,18.66,30.61,24.6c1.29,0.64,3.99,0.44,4.83-0.47
		c1.76-1.93-0.19-3.97-1.59-5.16c-4.2-3.55-8.7-6.74-13.03-10.13c-12.78-10-12.01-15.82,3.16-21.8c7.99-3.14,16.39-5.38,23.55-10.28
		C848.48,294.47,851.52,292.78,851.19,287.69z M902.55,537.11c-0.21-8.83-8.21-16.45-16.91-16.12c-9.01,0.34-15.9,8-15.53,17.27
		c0.35,8.72,7.37,15.47,16.17,15.57C894.89,553.92,902.76,545.83,902.55,537.11z M131.37,533.81c-0.06-9.47-6.82-16.01-16.37-15.85
		c-9.35,0.15-15.99,7.16-15.71,16.58c0.26,8.73,7.12,15.38,15.92,15.43C124.58,550.01,131.43,543.17,131.37,533.81z M497.21,859.23
		c5.88-1.19,9.81-4.68,9.44-11.1c-0.33-5.75-4.28-8.27-9.9-7.81c-6.2,0.5-9.08,4.36-9.07,10.24
		C487.69,856.45,491.36,858.96,497.21,859.23z"/>
	<path fill="#282D40" d="M234.16,337.54c5.46-1.09,8.84-4.67,11.99-9.07c33.79-47.16,77.06-82.94,130.25-106.13
		c34.76-15.16,71.16-23.94,109.26-25.94c66.58-3.51,128.42,11.64,184.66,47.18c74.21,46.9,122.36,113.41,141.3,199.22
		c21,95.16,2.46,183.37-57.32,260.39c-73.22,94.33-171.73,137.07-289.83,121.59c-132.62-17.38-221.46-94.1-263.02-220.95
		c-28.17-85.97-16.74-170.08,28.09-248.94c3.76-6.61,1.4-10.01-1.29-14.69C230.22,339.31,232.19,338.42,234.16,337.54z
		 M263.74,377.4c5.69-3.01,11.38-6.02,17.84-9.44c-6.5-3.04-12.1-5.7-17.72-8.29c-13.46-6.2-13.46-6.19-20.17,6.84
		c-5.47,8.82-9.74,18.22-13.53,27.85c-16.47,35.65-22.83,73.47-24.14,112.38c-1.74,13.2,0.62,26.35,2.22,39.23
		c6.99,56.29,28.14,106.88,63.69,151.35c3.49,4.37,6.46,4.88,11.41,3.36c13.52-4.13,27.07-8.33,40.87-11.32
		c7.43-1.61,6.6-3.68,2.86-8.31c-13.86-17.14-23.12-36.69-30.34-57.4c-13.27-38.05-17.16-77.36-16.54-117.33
		c2.36-17.24,4.73-34.49,7.09-51.73c1.32-4.91,2.61-9.83,3.96-14.73c2.56-9.25,9.73-19.52-5.68-24.72
		c-1.08-0.36-2.02-1.96-2.47-3.18c-1.39-3.78-4.05-4.26-7.39-3.21c-10.37,3.26-20.73,6.57-31.1,9.86
		c-15.21,2.32-4.13-7.49-5.36-11.62C245.64,395.65,253.57,385.6,263.74,377.4z M451.26,476.91c-9.78,8.15-17.42,18.05-23.73,29.03
		c-33.15,50.35-47.08,105.19-38.83,165.28c0.93,6.79,4.75,7.89,10.77,7.35c41.91-3.79,83.57-1.07,124.92,6.13
		c54.62,9.5,106.59,26.02,151.64,59.8c5.27,3.95,8.43,1.95,12.53-1.4c29.23-23.85,53.66-51.81,72.09-84.76
		c26.19-46.82,41.09-96.62,38.62-150.83c4.56-9.81,9.12-19.62,14.01-30.13c-34.69,0-67.71,0-100.73,0
		c-0.39-0.44-0.85-0.84-1.12-1.35c-0.1-0.19,0.22-0.89,0.36-0.89c11.29-0.34,22.58-0.63,33.87-0.92
		c14.74,1.02,14.82,1.03,16.03-12.89c0.96-11,1.37-22.05,2.65-33.01c0.85-7.28-1.83-8.56-7.94-6.22c-0.21-4.18-0.41-8.36-0.62-12.54
		c1.31-6.03-1.69-12.94,4.42-18.93c0.99,5.98,5.44,8.28,9.78,10.74c2.55,1.45,5.07,4.89,7.98,2.1c2.76-2.64-0.12-5.84-1.35-8.43
		c-4.81-10.19-9.91-20.24-14.91-30.34C707.28,263.6,587.87,201.99,473.7,214.84c-78.88,8.88-143.94,43.04-196.13,102.43
		c-3.07,3.5-6.61,6.78-8.31,11.88c24.26-0.14,45.46,5.49,59.62,25.99c3.38,4.89,5.06,5.17,10.13,2.27
		c31.47-18.02,71.78,6.86,79.34,28.29c-14.41,3.18-29.27,0.5-45.13,2.67c19.38,19.73,24.9,42.18,19.86,67.54
		c-1.5,2.45-2.79,0.14-4.17-0.18c-13.55-13.42-27.11-26.84-40.95-40.54c-7.66,14.43-9.67,15.43-23.55,9.61
		c-4.73-1.98-4.57,1.57-5.59,3.49c-4.66,8.8-8.94,17.79-11.03,27.63c-2.58,6.8-4.88,13.67-4.87,21.07
		c-3.03,9.53-4.34,19.28-3.79,29.28c-3.46,14.75-1.37,29.57,0.13,44.24c3.92,38.33,14.13,74.46,39.17,104.97
		c7.45,9.08,16.25,16.33,28.16,21.38c-1.24-16.22-1.4-30.95,0.05-45.74c4.32-44.19,18.22-85.37,38.3-124.69
		c6.17-9.73,12.34-19.46,18.52-29.19c5.67-7,11.34-14,17.01-21c2.55-6-5.5-5.21-5.98-9.41c-1.32-11.5-10.2-10.69-18.32-11.06
		c-3.79-0.17-7.61-0.12-11.38-0.54c-2.59-0.29-6.23,1.23-7.5-1.83c-1.18-2.84,1.84-4.89,3.6-6.86c13.41-14.98,30.02-23.7,51.99-24.9
		c-11.33-13.31-21.71-25.52-32.24-37.89c28.16-9.71,60.03,6.22,75.42,37.18c0.42,4.81,1.49,9.67,1.1,14.41
		c-0.49,5.92,1.99,5.88,6.49,4.97c34.66-6.97,67.36,18.36,70.39,55.42c-15.44-5.74-30.48-11.34-46.55-17.32
		c1.68,7.37,2.97,13.02,4.26,18.66c-0.52,9.82-2.18,19.44-4.94,28.87c-3.35,5.37-4.59,12.1-10.56,16.39
		c-2.8-5.63-5.48-11.01-8.15-16.38c-4.49-9.71-8.99-19.41-13.48-29.12c-0.32-3.46-1.65-6.42-4.13-8.9
		c-9.59,8.86-17.67,10.38-22.59,2.69c-4.37-6.82-6.94-3.72-10.44-0.44C455.23,472.27,453.31,474.66,451.26,476.91z M787.72,428.57
		c1.22,17.98-6.86,32.26-18.77,46.12c8.87,0,15.75-0.28,22.59,0.09c5.37,0.29,6.8-2.31,5.92-6.8
		C794.89,454.72,793.01,441.29,787.72,428.57z"/>
	<path fill="#C2100C" d="M366.77,172.88c-10.68,8.09-21.3,16.28-32.1,24.22c-2.74,2.01-5.89,3.65-9.1,4.8
		c-5.03,1.81-10.5,2.49-14.65-1.59c-3.99-3.93-4.5-9.01-2.4-14.41c3.74-9.62,7.36-19.29,10.75-29.04c1.12-3.23,2.3-7.57-0.52-9.8
		c-2.86-2.27-6.53,0.27-9.6,1.87c-8.96,4.67-16.3,11.54-23.97,17.93c-3.09,2.57-4.43,5.95-2.62,10.1
		c5.76,13.22,10.02,27.51,24.04,34.93c3.93,2.08,4.63,5.76,3.59,8.63c-0.95,2.63-4.79,1.65-7.54,1.2
		c-7.3-1.19-11.05-7.01-14.57-12.3c-4.74-7.13-8.44-14.97-12.34-22.63c-2.02-3.97-3.83-7.23-7.44-1.51
		c-2.34,3.71-5.81,4.44-8.85,2.35c-4.03-2.77-1.15-6.14,0.76-8.95c13.03-19.16,31.11-32.57,51.16-43.26
		c12.09-6.45,17.95-2.23,19.07,11.43c0.98,12-5.25,21.95-8.5,32.76c-1.06,3.51-4.39,7.5-0.89,10.51c4.07,3.49,7.67-0.84,10.84-2.97
		c13.75-9.26,27.23-18.94,40.99-28.18c8.56-5.75,8.67-15.38,10.94-23.7c2.61-9.58,3.17-19.7,4.9-29.54
		c0.54-3.06-0.67-7.61,4.32-8.16c4.26-0.46,7.66,0.42,9.96,5.23c5.8,12.11,12.38,23.85,18.63,35.75c1.81,3.44,3.6,6.98,8.44,6.14
		c6.18-1.07,8.1-0.03,3.94,6.06c-1.81,2.65-0.62,3.57,5.14,3.18c3.11-0.21,7.16-1.44,8.11,2.23c1.2,4.63-3.83,4.68-6.65,6.25
		c-6.66,3.7-12.72,2.96-17.48-2.98c-3.19-3.98-6.45-3.92-10.85-2.56c-8.57,2.65-16.15,7.66-25.08,9.56
		c-4.49,0.95-4.18,6.74-6.39,10.12c-2.47,3.77-2.42,10.89-8.68,9.95c-7.4-1.12-2.08-8.12-3.87-12.08c0.3-0.74,0.6-1.47,0.9-2.21
		C368.37,172.42,367.57,172.65,366.77,172.88z M397.97,118.75c-3.91,5.67-3.43,12.02-5.15,17.73c-1.72,5.7-6.11,13.7-2.49,17.1
		c4.63,4.34,12-1.75,18.3-2.71c0.34-0.05,0.67-0.16,1-0.22c3.62-0.6,4.45-2.25,2.78-5.72C408.15,136.02,403.84,127.16,397.97,118.75
		z"/>
	<path fill="#C2100C" d="M319.46,876.14c-3.69,0-6,0.13-8.28-0.02c-12.07-0.81-19.01-10.16-15.48-21.51
		c7.07-22.7,35.57-37.51,53.72-14.81c2.52,3.15,4.99,2.58,8.18,2.15c5.34-0.72,11.05,0.21,13.67,5.06
		c2.34,4.33-2.65,7.34-5.06,10.44c-8.08,10.36-16.47,20.47-24.64,30.76c-1.79,2.26-5.25,5.21-0.82,7.61
		c8.74,4.75,3.04,6.15-1.55,7.64c-8.64,2.81-16.45,0.66-23.15-5.1C306.75,890.37,314.22,883.65,319.46,876.14z M342.62,845.63
		c-0.33-1.64-1.42-3.29-4.65-2.53c-4.65,1.09-16.38,15.61-16.48,20.41c-0.06,2.97,0.85,4.74,4.22,3.91
		C327.94,866.86,342.36,849.14,342.62,845.63z"/>
	<path fill="#C2100C" d="M669.96,99.19c0.63,0.27,1.46,0.38,1.85,0.86c10.02,12.25,25.03,8.47,37.82,11.44
		c8.46,1.97,16.75,4.01,24.58,7.71c4.65,2.19,8,5.81,8.42,10.95c0.2,2.48-1,5.51-4.28,6.38c-2.49,0.66-5.08,0.67-6.49-1.77
		c-5.53-9.64-15.75-10.39-24.8-12.65c-8.32-2.08-17.04-2.62-25.62-3.52c-11.87-1.25-18.64,5.02-23.86,15.17
		c-7.45,14.5-7.89,14,8.12,17.37c19.86,4.18,40.19,6.39,59.3,13.73c2.61,1,8.46-1.02,6.95,4.9c-1.18,4.62-4.92,6.3-9.84,4.44
		c-21.46-8.14-44.36-9.44-66.57-14.04c-9.39-1.95-14.48-0.75-16.76,10.06c-1.6,7.62-4.18,15.24-5.8,22.96
		c-1.2,5.7-4.61,10.89-9.51,10.07c-4.86-0.82-3.45-7.03-2.66-11.56c1.67-9.57,4.65-18.68,8.58-27.52c1.68-3.78,3.82-6.92-2.34-9.8
		c-5.35-2.5-3.28-8.59,1.18-9.01c18.4-1.75,20.06-17.55,26.17-29.52C656.54,111.69,667.31,98.93,669.96,99.19z"/>
	<path fill="#C2100C" d="M211.63,790.38c-9.98-13.68-13.29-13.96-22.77-1.83c-2.12,2.71-3.81,2.38-5.99,0.76
		c-1.38-1.03-2.8-2.1-3.88-3.42c-3.14-3.85-10.36-6.49-8.51-11.75c1.97-5.61,7.95,0.74,11.85-0.58
		c14.35-4.86,28.58-10.09,42.86-15.15c14.7-5.21,24.59-2.32,33.63,9.77c7.41,9.92,5.98,18.66-4.56,25.37
		c-7.57,4.81-15.45,9.14-23.2,13.69c-2.38,1.4-5.79,2.22-6.97,4.31c-7.47,13.25-13.15,5.04-19.21-1.18
		c-1.68-1.72-3.87-2.96-5.49-4.73c-2.26-2.47-6.56-4.28-5.83-8.02c0.98-4.99,5.92-1.43,8.78-2.76
		C205.43,793.43,208.48,791.91,211.63,790.38z M212.95,774.53c5.6,10.48,12.17,9.92,19.56,3.86c3.14-2.58,10.26-3.04,7.71-8.87
		c-2.69-6.14-8.4-2.21-12.68-0.84C222.67,770.24,218.02,772.46,212.95,774.53z"/>
	<path fill="#C2100C" d="M398.36,851.15c16.85-0.07,20.79,6.25,13.54,20.37c-2.2,4.29-4.55,8.51-6.57,12.89
		c-0.75,1.64-2.95,3.61-0.62,5.44c2.26,1.78,5.07,1.23,6.29-1.1c4.05-7.79,11.43-14.49,10.47-24.03c-0.52-5.2,2.1-5.95,5.44-6.8
		c4.07-1.04,8.19-0.72,12.28,0.31c9.76,2.45,12.01,6.69,7.78,15.69c-2.78,5.92-6.31,11.48-9,17.43c-1.39,3.06-6.34,6.14-0.28,10.2
		c2.3,1.54-0.77,4.17-2.61,5.63c-6.06,4.82-18.22,4.83-22.56-1.7c-4.06-6.11-7.37-4.71-12.16-2.53c-5.11,2.33-10.24,1.07-15-1.12
		c-8.23-3.78-10.28-10.22-7.19-18.73c3.38-9.33,12.36-16.24,10.55-28.1C388.15,851.16,395.21,851.55,398.36,851.15z"/>
	<path fill="#C2100C" d="M468.01,131.22c-2.33,14-9.2,25.06-1.07,36.86c2.08,3.03,0.46,5.01-2.79,6.18
		c-3.69,1.33-7.42,3.15-9.71-1.8c-2.51-5.42-3.26-11.16-2.42-17.14c2.51-17.72,8.83-34.86,8.01-53.12
		c-0.14-3.16,1.33-6.45,5.21-6.57c5.17-0.17,7.08,3.54,7.73,7.96c2.55,17.16,8.91,32.47,21.21,45.08c3.17,3.25,6.1,7.74,10.95,6.46
		c4.93-1.3,3.87-6.75,4.23-10.68c1.35-14.92-1.97-29.41-4.37-43.98c-0.47-2.87-2.24-7.08,0.97-8.6c3.41-1.61,7.35,0.17,10.61,2.57
		c1.97,1.45,3.12,3.32,1.72,5.21c-6.65,8.92-1.65,18.18-0.41,26.99c0.97,6.9,1.11,13.71,1.45,20.58c0.45,9.02-3.8,15.68-11.41,19.36
		c-7.48,3.62-13.07-2.47-18.29-6.49C480.76,153.26,475.08,143.64,468.01,131.22z"/>
	<path fill="#C2100C" d="M822.82,776.09c0.03,13.4-21.35,35.38-34.65,35.61c-6.19,0.11-10.67-2.86-9.94-9.06
		c0.84-7.21,6.47-10.26,13.55-9.77c1.9,0.13,3.86,1.42,5.52,2.56c2.12,1.46,3.75,1.26,5.35-0.62c1.43-1.68,2.11-3.58,1.44-5.72
		c-0.74-2.36-2.77-3.22-4.9-2.82c-4.38,0.82-8.78,1.76-13.01,3.15c-6.04,1.97-11.58,2.05-16.2-2.93c-4.78-5.15-5.07-11.3-2.6-17.39
		c4.49-11.05,13.08-18.45,23.29-23.97c4.26-2.3,9.08-4.06,13.41,0.23c2.55,2.52,2.56,5.73,1.01,8.62
		c-2.59,4.84-6.53,7.64-12.37,8.03c-3.58,0.24-7.37-6-10.71,0.28c-0.93,1.75-0.82,3.46,0.8,4.56c4.38,2.98,8.56,0.63,12.78-0.7
		c3.61-1.14,7.21-2.41,10.9-3.18C816.29,760.94,822.8,766.27,822.82,776.09z"/>
	<path fill="#C2100C" d="M597.35,905.21c-9.05,0.28-16.53-2.67-20.33-11.27c-4.96-11.22-4.24-22.45,3.49-32.12
		c8.44-10.55,20.5-13.48,33.41-12.62c6.78,0.45,11.82,4.6,13.03,11.39c1.14,6.41-2.55,11.24-7.87,14.54
		c-5.04,3.12-10.73,4.5-16.51,5.65c-1.78,0.36-4.52,0.59-4.04,3.55c0.36,2.19,2.03,3.52,4.25,3.91c4.97,0.88,9.52-0.36,13.92-2.68
		c1.99-1.05,4.23-3.48,6.44-1.21c2.34,2.4,0.6,5.34-0.67,7.64C617.01,901.84,607.89,904.95,597.35,905.21z M596.3,875.12
		c8.33-3.92,8.77-9.06,4.99-16.06C596.25,863.16,596.48,868.28,596.3,875.12z"/>
	<path fill="#C2100C" d="M710.53,824.18c0.26-15.97,16.8-32.86,31.65-33.48c5.63-0.24,10.42,1.87,13.02,6.88
		c2.54,4.89,2.21,10.16-1.24,14.7c-3.79,5-8.59,8.92-13.9,12.3c-1.65,1.05-5.64,1.25-3.7,4.81c1.48,2.73,4.47,3.16,7.35,2.37
		c4.88-1.35,8.21-4.91,11.59-8.41c1.29-1.34,2.28-3.99,4.82-2.62c2.01,1.09,2.05,3.42,2.15,5.52c0.48,9.51-9.31,20.9-20.97,24.36
		c-10.69,3.17-19.41,0.08-25.09-9.11C712.71,835.83,710.73,829.62,710.53,824.18z M730.28,804.17c-1.92,7.02-1.47,12.02,2.34,17.5
		C737.04,815.01,735.93,810.1,730.28,804.17z"/>
	<path fill="#C2100C" d="M773.8,280.03c2.58-0.32,4.4-0.23,5.97-0.8c3.77-1.37,8.22-2.79,9.22,2.37c0.98,5.09-4.33,5.36-7.85,6.25
		c-14.68,3.7-31.17-2.04-35.28-12.08c-3.5-8.56-0.51-15.74,5.56-21.48c7.18-6.8,14.47-13.69,23.91-17.54
		c1.57-0.64,3.03-1.63,4.39-2.67c10.39-7.92,19.61-7.85,30.19,1.11c8.71,7.37,16.27,15.94,22.79,25.35c1.32,1.91,3.9,4.1,1.44,6.21
		c-2.83,2.42-5.3-0.3-6.83-2.39c-7.51-10.26-17.78-17.17-28.26-23.86c-2.97-1.9-6.07-3.75-9.49-1.07c-3.08,2.41-6.29,4.64-1.35,8.76
		c5.29,4.41,10.02,9.49,15.03,14.25c2.4,2.28,6.47,4.5,3.37,8.17c-2.2,2.6-5.48,1-8.25-1.14c-5.98-4.63-12.27-8.87-18.42-13.29
		c-2.85-2.04-4.96-6.87-9.46-3.47c-5.98,4.51-13.11,8.61-14.05,16.94c-0.67,5.9,5.49,6.36,9.21,8.27
		C768.3,279.28,771.56,279.49,773.8,280.03z"/>
	<path fill="#C2100C" d="M721.16,243.71c-8.6-1.16-18.21-1.05-23.13-11.45c-4.74-10.01,0.29-17.56,6.16-24.4
		c8.22-9.58,16.28-19.75,26.23-27.23c7.28-5.47,17.13-1.54,24.86,2.65c10.03,5.44,18.74,12.89,27.04,20.74
		c1.73,1.63,4.29,3.35,2.09,5.93c-2.21,2.59-4.73,0.31-6.32-1.1c-9.73-8.57-21.16-14.03-33.03-18.83c-3.8-1.53-7.11-2.58-10.16,1.31
		c-2.33,2.96-4.41,5.25,0.56,8.02c6.6,3.68,12.83,8.05,19.15,12.23c2.25,1.49,5.35,3.18,3.51,6.42c-1.58,2.77-4.61,2.37-7.37,1.11
		c-7.83-3.56-16.33-5.84-23.2-11.22c-4.22-3.31-7.3-3.09-10.27,1.25c-0.78,1.13-1.9,2.04-2.6,3.21c-3.03,5.12-9.85,10.17-4.86,16.39
		c4.78,5.95,12.65,6.04,19.98,4.03c1.97-0.54,3.75-1.79,5.71-2.39c2.65-0.8,5.75-1.65,7.31,1.54c1.56,3.21-0.66,5.11-3.39,6.39
		C733.8,240.98,728.18,243.68,721.16,243.71z"/>
	<path fill="#C2100C" d="M266.9,247.58c-0.47,7.51-1.91,13.95-5.12,19.71c-5.94,10.68-19.44,11.04-30.18,1.28
		c-10.76-9.78-17.74-22.64-27.19-33.52c-4.45-5.12,0.86-12.68,3.56-17.99c6.54-12.82,18.03-21.61,28.79-30.82
		c1.29-1.11,2.95-2.19,4.51-0.31c2.21,2.67,0.02,4.81-1.54,6.2c-9.16,8.14-16.27,17.82-22.09,28.52c-1.15,2.12-2.43,4.23-3.15,6.51
		c-1.16,3.69,1.61,5.77,3.99,7.72c3.26,2.66,4.79-0.19,6.58-2.31c4.89-5.82,9.77-11.65,14.82-17.33c1.56-1.75,3.68-3.85,6.19-1.85
		c2.16,1.72,1.92,4.45,0.55,6.61c-4.82,7.56-8.61,15.81-14.84,22.45c-2.15,2.3-4.77,4.78-1.85,7.99c5.04,5.53,9.3,12.43,17.85,13
		c4.28,0.28,5.62-3.34,7.01-6.56c2.72-6.28,3.18-12.54,0.83-19.15c-0.98-2.77-1.42-6.75,2.9-7.51c3.31-0.58,4.67,2.25,5.37,5.15
		C264.94,239.72,266.03,244.06,266.9,247.58z"/>
	<path fill="#C2100C" d="M525.38,915.1c-8.65,0.97-8.78,0.87-5.83-9.06c5.61-18.9,14.77-38,10.25-58.93
		c-0.7-3.26,1.51-4.31,3.71-5.29c4.12-1.82,8.37-3.24,12.95-3.41c9.81-0.36,13.55,3.77,11.49,13.25
		c-3.29,15.18-6.82,30.31-10.27,45.46c-0.23,1.01-1.12,2.12-0.88,2.94c4.82,16.37-7.58,13.4-16.28,14.55
		C528.83,914.85,527.1,914.94,525.38,915.1z"/>
	<path fill="#C2100C" d="M235.24,832.63c7.6,0.34,11.46-2.96,15.38-6.42c10.61-9.38,21.37-18.58,32.06-27.87
		c1.29-1.12,2.98-2.09,3.69-3.52c1.71-3.43-0.34-10.27,7.14-8.18c7.28,2.04,14.95,4.17,18.46,11.9c2.08,4.58-1.1,7.84-4.33,10.63
		c-9.94,8.56-19.96,17.04-29.9,25.6c-3.4,2.93-8.69,5.49-9.63,9.12c-3.38,13.05-9.47,6.13-14.92,2.7
		C247.5,843.01,240.98,840.39,235.24,832.63z"/>
	<path fill="#C2100C" d="M557.32,162.04c-7.19,0.26-15.08-1.7-18.53-10.98c-3.74-10.03-1.57-18.87,6.29-26.33
		c11.18-10.61,23.99-18.39,38.81-22.71c7.43-2.16,14.6-1.51,20.09,4.28c5.2,5.48,5.34,12.03,3.02,19.27
		C599.07,150.33,581.1,164.26,557.32,162.04z M562.52,152.73c15.63-0.82,26.18-8.2,32.32-21.45c1.65-3.56,5.93-7.99,1.19-12.01
		c-4.23-3.59-8.14-7.32-15.4-4.38c-10.15,4.12-19.18,9.28-26.27,17.52c-3.31,3.85-6.75,8.04-4.13,13.85
		C552.83,152.04,558.47,151.61,562.52,152.73z"/>
	<path fill="#C2100C" d="M673.59,852.25c4.08,6.43-3.53,18.09,7.15,25.34c2.6,1.76-1.05,3.97-3.19,4.88
		c-7.63,3.21-15.22,6.53-23,9.34c-4.32,1.57-5.38,0.89-4.64-4.86c1.73-13.35,3.21-27.3-4.42-39.59c-2.17-3.5-1.02-5.05,1.01-6.87
		c5.72-5.14,11.91-10.61,20.16-7.6c5.71,2.08,5.32-2.71,7.36-4.67c4.39-4.25,9.48-5.98,15.14-3.76c4.46,1.75,6.83,5.57,7.05,10.56
		c0.42,9.19-6.9,14.52-14.9,9.85C673.65,840.39,672.25,842.73,673.59,852.25z"/>
	<path fill="#C2100C" d="M476.28,915.08c-1.79-0.14-4.2-0.41-6.61-0.5c-7.64-0.31-13.06,1.13-6.08-10.56
		c5.83-9.77,13.65-21.63,8.93-35.23c-0.2-0.59-0.31-1.64,0.01-1.9c6.27-5.22,13.5-6.2,21.25-4.52c6.28,1.36,8.78,5.34,6.91,11.42
		c-2.31,7.56-5.09,14.99-7.66,22.47c-0.89,2.6-3.09,5.59-2.46,7.76C494.92,919.14,483.97,914.54,476.28,915.08z"/>
	<path fill="#C2100C" d="M851.19,287.69c0.33,5.09-2.72,6.78-5.11,8.42c-7.17,4.9-15.56,7.14-23.55,10.28
		c-15.18,5.97-15.94,11.79-3.16,21.8c4.33,3.39,8.84,6.58,13.03,10.13c1.4,1.19,3.35,3.23,1.59,5.16c-0.83,0.91-3.54,1.11-4.83,0.47
		c-12.02-5.95-24.76-11.75-30.61-24.6c-3.7-8.13,2.35-14.56,9.15-18.65c10.46-6.29,23.31-8.01,32.02-18.01
		C842.83,279.12,851.03,284.04,851.19,287.69z"/>
	<path fill="#C2100C" d="M902.55,537.11c0.21,8.72-7.67,16.81-16.27,16.72c-8.8-0.1-15.82-6.85-16.17-15.57
		c-0.37-9.27,6.52-16.93,15.53-17.27C894.35,520.66,902.34,528.28,902.55,537.11z"/>
	<path fill="#C2100C" d="M131.37,533.81c0.06,9.36-6.79,16.2-16.16,16.15c-8.8-0.05-15.66-6.69-15.92-15.43
		c-0.28-9.42,6.36-16.43,15.71-16.58C124.55,517.8,131.31,524.34,131.37,533.81z"/>
	<path fill="#C2100C" d="M497.21,859.23c-5.85-0.27-9.52-2.78-9.53-8.67c-0.01-5.88,2.87-9.74,9.07-10.24
		c5.63-0.46,9.57,2.06,9.9,7.81C507.02,854.55,503.09,858.04,497.21,859.23z"/>
	<path fill="#1D9CC3" d="M799.27,507.51c2.47,54.2-12.44,104.01-38.62,150.83c-18.43,32.95-42.86,60.91-72.09,84.76
		c-4.1,3.35-7.26,5.35-12.53,1.4c-45.05-33.78-97.02-50.3-151.64-59.8c-41.35-7.2-83.01-9.92-124.92-6.13
		c-6.02,0.54-9.84-0.56-10.77-7.35c-8.25-60.09,5.68-114.94,38.83-165.28c26.85,0.01,53.71,0.02,80.56,0.03
		c2.68,5.38,5.35,10.76,8.15,16.38c5.97-4.28,7.21-11.02,10.56-16.39c23.1,0.08,46.19,0.17,69.29,0.25
		c3.03,7.28,2.55,15.84,8.1,22.19c-9.77,0.15-19.54,0.19-29.29,0.58c-1.25,0.05-5.06-2.34-4.01,2.34
		c5.01,8.63,10.09,17.22,14.99,25.91c2.17,3.85,5.33,4.72,9.48,4.69c18.65-0.15,37.3-0.08,55.96-0.06c3.5,0,7.13,0.32,8.7-3.84
		c3.4-9.01,9.1-17.07,11.1-26.66c0.28-0.5,0.63-0.97,0.78-1.51c0.06-0.2-0.37-0.77-0.58-0.77c-14.11-0.04-28.22-0.03-44.17-0.03
		c6.67-8.48,11.97-15.1,15.25-22.99c28.84-0.02,57.68-0.03,86.51-0.05c3.37,2.43,7.25,1.54,10.93,1.55
		C759.65,507.61,779.46,507.54,799.27,507.51z"/>
	<path fill="#F7D863" d="M393.09,455.89c5.04-25.36-0.48-47.8-19.86-67.53c15.86-2.16,30.71,0.51,45.13-2.67
		c-7.57-21.42-47.87-46.31-79.34-28.29c-5.06,2.9-6.75,2.62-10.13-2.27c-14.17-20.49-35.36-26.13-59.62-25.99
		c1.71-5.1,5.24-8.39,8.31-11.88c52.18-59.39,117.24-93.55,196.13-102.43c114.17-12.85,233.58,48.76,288.01,149.88
		c-12.14,9.53-24.94,18.35-31.87,32.99c-3.55,7.5-5.03,20.18-18.04,8.85c-0.43-0.37-1.38-0.36-2.03-0.23
		c-10.11,1.99-10.14-3.99-9.62-11.39c3.46-49.24-31.89-90.56-69.91-101.57c7.16-4.74,14.33-9.48,23.38-15.47
		c-14.55,1.23-25.01,6.35-35.11,12.46c-1.86-0.24-3.72-0.48-5.58-0.72c-1.29-1.58-3.17-1.62-4.69-1.02
		c-8.85,3.47-16.28,1.08-23.97-3.99c-6.6-4.35-14.6-5.71-23.95-6.26c6.17,4.41,11.15,7.96,16.13,11.52
		c-8.06,2.38-16.18,4.61-23.58,8.78c-9.3-5.1-18.66-9.99-31.98-10.37c9.17,6.07,16.29,10.77,23.4,15.47
		c-6.07,3.32-11.44,7.58-16.42,12.34c-24.23,23.18-33.68,51.9-31.82,84.86c-15.39-30.96-47.26-46.89-75.42-37.18
		c10.53,12.37,20.91,24.58,32.24,37.89c-21.97,1.2-38.57,9.92-51.99,24.9c-1.76,1.97-4.78,4.02-3.6,6.86
		c1.27,3.06,4.91,1.53,7.5,1.83c3.76,0.43,7.58,0.37,11.38,0.54c8.11,0.36,17-0.44,18.32,11.06c0.48,4.2,8.53,3.41,5.98,9.41
		C424.68,456.13,408.88,456.01,393.09,455.89z"/>
	<path fill="#FEFEFE" d="M496.06,400.95c-1.87-32.96,7.59-61.69,31.82-84.86c4.98-4.76,10.35-9.02,16.42-12.34
		c6.68,3.83,13.36,7.66,21.31,12.21c-2.19-8.79-8.14-12.54-12.74-17.31c7.4-4.17,15.52-6.4,23.57-8.78c3.53,1.21,6.8,2.79,9.39,6.43
		c-6.88,4.95-13.85,9.73-16.59,18.23c12.75-0.6,19.3-20.78,36.99-6.51c-7.88-12.35-0.91-15.55,6.69-18.39
		c1.86,0.24,3.72,0.48,5.58,0.72c-2.58,4.04-7.39,6.4-8.64,11.45c-0.27,0.75-0.55,1.49-0.82,2.24c0.87,0.02,1.74,0.04,2.61,0.06
		c6.2-3.58,12.39-7.16,18.59-10.73c38.03,11.01,73.37,52.33,69.91,101.57c-0.52,7.4-0.49,13.39,9.62,11.39
		c0.65-0.13,1.6-0.14,2.03,0.23c13.02,11.33,14.49-1.35,18.04-8.85c6.93-14.64,19.73-23.46,31.87-32.99
		c4.99,10.1,10.09,20.15,14.91,30.34c1.22,2.59,4.11,5.79,1.35,8.43c-2.91,2.78-5.44-0.66-7.98-2.1c-4.34-2.47-8.79-4.76-9.78-10.74
		c-6.11,5.99-3.12,12.9-4.42,18.93c-3.81,0.86-6.61,3.53-9.88,5.37c-10.09,5.68-10.61,19.08-18.47,24.76
		c-8.7,6.29-19.47,9.86-26.5,18.81c-0.63,0.81-1.09,1.75-1.6,2.65c-1.73,3.07-3.58,2.72-6.73,1.42
		c-12.47-5.13-24.03-2.82-32.33,7.89c-4.54,5.87-9.35,7.19-15.77,6.63c-2.84-15.82-18.97-20.36-27.11-32.09
		c-4.75,9-1.87,18.44-2.37,27.56c-0.11,2.05,0.87,3.29,3.1,2.74c5.96-1.45,5,2.57,4.73,5.96c-0.9,11.34-1.69,22.7-2.84,34.02
		c-1.39,13.69-1.53,13.68-15.81,13.1c-5.55-6.36-5.07-14.91-8.1-22.19c0.91-10.93,4.99-20.41,15.4-29.12c-28.27,0-54.01,0-79.75,0
		c-1.29-5.64-2.57-11.29-4.26-18.66c16.07,5.98,31.11,11.57,46.55,17.32c-3.03-37.07-35.73-62.39-70.39-55.42
		c-4.5,0.91-6.98,0.94-6.49-4.97C497.55,410.62,496.48,405.76,496.06,400.95z"/>
	<path fill="#1D9CC3" d="M280.18,506.32c-0.62,39.97,3.27,79.28,16.54,117.33c7.22,20.72,16.47,40.27,30.34,57.4
		c3.74,4.62,4.57,6.7-2.86,8.31c-13.8,2.98-27.35,7.18-40.87,11.32c-4.95,1.51-7.91,1.01-11.41-3.36
		c-35.55-44.47-56.71-95.06-63.69-151.35c-1.6-12.88-3.96-26.02-2.22-39.23C230.73,506.6,255.46,506.46,280.18,506.32z"/>
	<path fill="#1D9CC3" d="M404.94,506.43c-20.07,39.32-33.97,80.51-38.3,124.69c-1.45,14.78-1.29,29.52-0.05,45.74
		c-11.9-5.04-20.71-12.3-28.16-21.38c-25.04-30.51-35.26-66.65-39.17-104.97c-1.5-14.68-3.6-29.49-0.13-44.24
		C334.41,506.32,369.68,506.38,404.94,506.43z"/>
	<path fill="#F7D863" d="M280.18,506.32c-24.72,0.14-49.45,0.27-74.17,0.41c1.31-38.9,7.68-76.72,24.15-112.38
		c3.03,4.2,6.06,8.41,9.09,12.62c1.23,4.13-9.85,13.93,5.36,11.62c0.9,5.08,2.09,10.14,2.6,15.26c0.39,3.93,2.2,5.44,5.92,5.51
		c13.52,0.25,24.4,6.47,34.15,15.22C284.91,471.83,282.54,489.08,280.18,506.32z"/>
	<path fill="#F7D863" d="M644.5,477.11c6.42,0.56,11.23-0.77,15.77-6.63c8.29-10.71,19.86-13.01,32.33-7.89
		c3.15,1.3,5.01,1.65,6.73-1.42c0.51-0.9,0.97-1.84,1.6-2.65c7.03-8.95,17.8-12.52,26.5-18.81c7.86-5.68,8.38-19.08,18.47-24.76
		c3.27-1.84,6.07-4.5,9.88-5.37c0.21,4.17,0.41,8.35,0.62,12.53c-19.62,13.17-23.09,30.02-10.74,52.13
		c-11.29,0.29-22.58,0.59-33.87,0.92c-0.14,0-0.46,0.7-0.36,0.89c0.27,0.5,0.73,0.91,1.12,1.35c5.46,9.54,10.91,19.09,16.37,28.63
		c-28.84,0.02-57.68,0.03-86.51,0.05C645.45,496.58,647.02,486.99,644.5,477.11z"/>
	<path fill="#F7D863" d="M404.94,506.43c-35.27-0.06-70.53-0.11-105.8-0.17c-0.55-9.99,0.76-19.75,3.79-29.28
		c40.17,0.09,80.35,0.17,120.52,0.26C417.29,486.97,411.12,496.7,404.94,506.43z"/>
	<path fill="#FEFEFE" d="M728.92,506.02c-5.46-9.54-10.91-19.09-16.37-28.63c33.02,0,66.04,0,100.73,0
		c-4.89,10.51-9.45,20.32-14.01,30.13c-19.81,0.03-39.61,0.1-59.42,0.05C736.16,507.56,732.28,508.44,728.92,506.02z"/>
	<path fill="#FEFEFE" d="M423.46,477.24c-40.17-0.09-80.35-0.17-120.52-0.26c-0.01-7.4,2.29-14.27,4.87-21.07
		c27.04-0.06,54.08-0.13,81.11-0.2c1.38,0.32,2.67,2.63,4.17,0.17c15.8,0.11,31.59,0.23,47.38,0.34
		C434.8,463.24,429.13,470.24,423.46,477.24z"/>
	<path fill="#F7D863" d="M531.75,477.1c25.74,0,51.47,0,79.75,0c-10.41,8.71-14.49,18.19-15.4,29.12
		c-23.1-0.08-46.19-0.17-69.29-0.25C529.57,496.54,531.23,486.92,531.75,477.1z"/>
	<path fill="#F7D863" d="M388.92,455.72c-27.04,0.07-54.08,0.13-81.11,0.2c2.09-9.85,6.37-18.83,11.03-27.64
		c1.02-1.92,0.86-5.47,5.59-3.49c13.88,5.81,15.89,4.82,23.55-9.61C361.81,428.89,375.37,442.3,388.92,455.72z"/>
	<path fill="#F7D863" d="M508.09,505.97c-26.85-0.01-53.71-0.02-80.56-0.03c6.32-10.98,13.95-20.88,23.73-29.02
		c14.45-0.02,28.9-0.04,43.35-0.06C499.1,486.56,503.59,496.26,508.09,505.97z"/>
	<path fill="#FEFEFE" d="M287.27,454.59c-9.74-8.75-20.63-14.97-34.15-15.22c-3.71-0.07-5.52-1.58-5.92-5.51
		c-0.51-5.12-1.7-10.18-2.6-15.26c10.36-3.29,20.73-6.59,31.1-9.86c3.34-1.05,6-0.57,7.39,3.21c0.45,1.22,1.39,2.82,2.47,3.18
		c15.41,5.21,8.24,15.47,5.68,24.72C289.88,444.76,288.59,449.67,287.27,454.59z"/>
	<path fill="#FEFEFE" d="M745.65,474.23c-12.35-22.1-8.88-38.96,10.74-52.13c6.11-2.33,8.8-1.05,7.95,6.23
		c-1.28,10.96-1.69,22.01-2.65,33.01C760.47,475.26,760.4,475.25,745.65,474.23z"/>
	<path fill="#FEFEFE" d="M239.24,406.98c-3.03-4.21-6.06-8.42-9.09-12.62c3.79-9.63,8.06-19.03,13.53-27.84
		c7.85,1.48,14.17,5.78,20.06,10.89C253.57,385.6,245.64,395.65,239.24,406.98z"/>
	<path fill="#F7D863" d="M787.72,428.57c5.29,12.72,7.17,26.15,9.75,39.41c0.88,4.5-0.55,7.09-5.92,6.8
		c-6.85-0.37-13.73-0.09-22.59-0.09C780.86,460.83,788.94,446.54,787.72,428.57z"/>
	<path fill="#F7D863" d="M263.74,377.4c-5.88-5.11-12.21-9.4-20.06-10.89c6.71-13.03,6.72-13.04,20.17-6.85
		c5.63,2.59,11.22,5.25,17.72,8.29C275.11,371.38,269.43,374.39,263.74,377.4z"/>
	<path fill="#FEFEFE" d="M494.6,476.85c-14.45,0.02-28.9,0.04-43.35,0.06c2.05-2.25,3.97-4.64,6.18-6.71
		c3.5-3.28,6.08-6.37,10.44,0.44c4.92,7.69,13.01,6.18,22.59-2.69C492.95,470.43,494.29,473.39,494.6,476.85z"/>
	<path fill="#DCB686" d="M397.97,118.75c5.87,8.41,10.18,17.27,14.45,26.18c1.66,3.47,0.84,5.12-2.78,5.72
		c-0.34,0.06-0.67,0.17-1,0.22c-6.3,0.96-13.67,7.05-18.3,2.71c-3.63-3.4,0.76-11.4,2.49-17.1
		C394.54,130.77,394.06,124.42,397.97,118.75z"/>
	<path fill="#DCB686" d="M366.77,172.88c0.8-0.23,1.6-0.45,2.4-0.68c-0.3,0.74-0.6,1.47-0.9,2.21
		C367.77,173.9,367.27,173.39,366.77,172.88z"/>
	<path fill="#DCB686" d="M342.62,845.63c-0.25,3.52-14.67,21.23-16.9,21.79c-3.37,0.84-4.28-0.94-4.22-3.91
		c0.09-4.8,11.83-19.32,16.48-20.41C341.2,842.34,342.29,843.98,342.62,845.63z"/>
	<path fill="#DCB686" d="M212.95,774.53c5.07-2.07,9.73-4.3,14.59-5.85c4.27-1.37,9.99-5.3,12.68,0.84
		c2.55,5.82-4.57,6.29-7.71,8.87C225.11,784.46,218.55,785.01,212.95,774.53z"/>
	<path fill="#DCB686" d="M596.3,875.12c0.19-6.84-0.04-11.96,4.99-16.06C605.06,866.07,604.63,871.2,596.3,875.12z"/>
	<path fill="#DCB686" d="M730.28,804.17c5.65,5.93,6.76,10.84,2.34,17.5C728.8,816.19,728.36,811.19,730.28,804.17z"/>
	<path fill="#DCB686" d="M562.52,152.73c-4.05-1.12-9.68-0.69-12.29-6.47c-2.62-5.82,0.82-10.01,4.13-13.85
		c7.09-8.24,16.12-13.4,26.27-17.52c7.26-2.95,11.17,0.79,15.4,4.38c4.74,4.02,0.46,8.45-1.19,12.01
		C588.7,144.53,578.15,151.91,562.52,152.73z"/>
	<path fill="#FEFEFE" d="M671.11,531.37c-2,9.59-7.7,17.65-11.1,26.66c-1.57,4.16-5.2,3.84-8.7,3.84
		c-18.65-0.02-37.3-0.1-55.96,0.06c-4.15,0.03-7.31-0.84-9.48-4.69c-4.89-8.69-9.98-17.28-14.98-25.91
		C604.3,531.34,637.71,531.36,671.11,531.37z"/>
	<path fill="#282D40" d="M671.11,531.37c-33.41-0.01-66.81-0.03-100.22-0.04c-1.05-4.68,2.76-2.29,4.01-2.34
		c9.76-0.39,19.53-0.43,29.29-0.58c14.28,0.58,14.42,0.6,15.81-13.1c1.15-11.32,1.93-22.68,2.84-34.02
		c0.27-3.39,1.23-7.42-4.73-5.96c-2.24,0.55-3.22-0.7-3.1-2.74c0.5-9.12-2.37-18.56,2.37-27.56c8.14,11.73,24.28,16.27,27.11,32.09
		c2.52,9.89,0.95,19.48-2.09,28.96c-3.27,7.89-8.57,14.51-15.25,22.99c15.94,0,30.06,0,44.17,0.03c0.21,0,0.63,0.57,0.58,0.77
		C671.75,530.4,671.39,530.87,671.11,531.37z"/>
	<path fill="#282D40" d="M612.92,289.63c-7.59,2.84-14.56,6.04-6.69,18.39c-17.7-14.27-24.25,5.91-36.99,6.51
		c2.73-8.5,9.7-13.27,16.59-18.23c-2.59-3.64-5.86-5.23-9.39-6.43c-4.98-3.56-9.96-7.11-16.13-11.52
		c9.35,0.55,17.34,1.91,23.95,6.26c7.69,5.07,15.12,7.46,23.97,3.99C609.75,288.01,611.63,288.05,612.92,289.63z"/>
	<path fill="#282D40" d="M552.87,298.65c4.6,4.77,10.55,8.52,12.74,17.31c-7.95-4.55-14.63-8.38-21.31-12.21
		c-7.12-4.71-14.23-9.41-23.41-15.47C534.21,288.67,543.57,293.56,552.87,298.65z"/>
	<path fill="#282D40" d="M630.24,293.36c-6.2,3.58-12.39,7.16-18.59,10.73c-0.6-0.77-1.19-1.53-1.79-2.3
		c1.25-5.04,6.06-7.41,8.64-11.45c10.1-6.11,20.56-11.23,35.11-12.46C644.56,283.88,637.4,288.62,630.24,293.36z"/>
	<path fill="#282D40" d="M611.65,304.1c-0.87-0.02-1.74-0.04-2.61-0.06c0.27-0.75,0.55-1.49,0.82-2.24
		C610.46,302.56,611.05,303.33,611.65,304.1z"/>
</g>
</svg>
